<?xml version="1.0" encoding="UTF-8"?>
<svg xmlns="http://www.w3.org/2000/svg" xmlns:xlink="http://www.w3.org/1999/xlink" width="36pt" height="36pt" viewBox="0 0 36 36" version="1.1">
<g id="surface1">
<path style=" stroke:none;fill-rule:nonzero;fill:rgb(80%,80%,80%);fill-opacity:1;" d="M 36 18 C 36 20.476562 35.496094 22.925781 34.519531 25.199219 C 34.09375 26.207031 33.566406 27.105469 32.980469 28.007812 L 32.292969 28.957031 C 32.03125 29.328125 31.765625 29.648438 31.445312 29.964844 C 30.8125 30.707031 30.070312 31.394531 29.328125 32.03125 L 28.480469 32.664062 C 27.6875 33.246094 26.839844 33.722656 25.992188 34.148438 L 24.988281 34.625 C 22.871094 35.523438 20.488281 36 18 36 C 15.511719 36 13.128906 35.46875 10.957031 34.570312 C 9.6875 34.042969 8.523438 33.351562 7.464844 32.613281 C 7.199219 32.398438 6.882812 32.1875 6.617188 31.976562 C 5.875 31.339844 5.136719 30.652344 4.5 29.910156 C 3.96875 29.277344 3.441406 28.640625 3.019531 28.007812 C 2.804688 27.6875 2.648438 27.371094 2.433594 27.105469 C 2.066406 26.46875 1.746094 25.835938 1.480469 25.199219 C 0.53125 22.921875 0 20.542969 0 18 C 0 8.046875 8.046875 0 18 0 C 27.953125 0 36 8.046875 36 18 Z M 36 18 "/>
<path style=" stroke:none;fill-rule:nonzero;fill:rgb(86.666667%,86.666667%,86.666667%);fill-opacity:1;" d="M 32.769531 14.769531 C 32.769531 16.886719 32.347656 18.847656 31.554688 20.648438 C 31.183594 21.441406 30.757812 22.234375 30.28125 22.921875 C 30.125 23.1875 29.910156 23.453125 29.753906 23.71875 C 29.542969 23.980469 29.328125 24.300781 29.066406 24.566406 C 28.535156 25.148438 27.953125 25.730469 27.316406 26.257812 L 26.628906 26.789062 C 25.992188 27.265625 25.304688 27.6875 24.566406 28.007812 C 24.300781 28.164062 24.035156 28.269531 23.71875 28.375 C 21.890625 29.148438 19.929688 29.542969 17.945312 29.542969 C 15.882812 29.542969 13.976562 29.117188 12.175781 28.375 C 11.171875 27.953125 10.164062 27.371094 9.265625 26.734375 C 9.054688 26.578125 8.789062 26.417969 8.578125 26.207031 C 7.941406 25.675781 7.359375 25.148438 6.828125 24.511719 C 6.40625 24.035156 5.980469 23.507812 5.613281 22.921875 C 5.453125 22.660156 5.292969 22.445312 5.136719 22.183594 C 4.816406 21.652344 4.554688 21.125 4.339844 20.59375 C 3.546875 18.792969 3.125 16.835938 3.125 14.71875 C 3.230469 6.617188 9.847656 0 18 0 C 26.152344 0 32.769531 6.617188 32.769531 14.769531 Z M 32.769531 14.769531 "/>
<path style=" stroke:none;fill-rule:nonzero;fill:rgb(50.980392%,21.568627%,15.686275%);fill-opacity:1;" d="M 5.398438 17.101562 L 8.734375 17.101562 L 8.734375 19.640625 L 5.398438 19.640625 Z M 5.398438 17.101562 "/>
<path style=" stroke:none;fill-rule:nonzero;fill:rgb(50.980392%,21.568627%,15.686275%);fill-opacity:1;" d="M 10.957031 14.558594 C 10.957031 16.464844 9.636719 18 7.886719 18.421875 C 7.625 18.476562 7.304688 18.53125 7.042969 18.53125 C 4.871094 18.53125 3.125 16.78125 3.125 14.613281 C 3.125 12.441406 4.871094 10.695312 7.042969 10.695312 C 7.359375 10.695312 7.625 10.746094 7.886719 10.800781 C 9.636719 11.117188 10.957031 12.707031 10.957031 14.558594 Z M 10.957031 14.558594 "/>
<path style=" stroke:none;fill-rule:nonzero;fill:rgb(58.823529%,34.509804%,27.058824%);fill-opacity:1;" d="M 10.957031 14.558594 C 10.957031 16.464844 9.636719 18 7.886719 18.421875 C 6.140625 18.054688 4.816406 16.464844 4.816406 14.558594 C 4.816406 12.652344 6.140625 11.117188 7.886719 10.695312 C 9.636719 11.117188 10.957031 12.707031 10.957031 14.558594 Z M 10.957031 14.558594 "/>
<path style=" stroke:none;fill-rule:nonzero;fill:rgb(100%,40%,54.901961%);fill-opacity:1;" d="M 12.652344 24.089844 L 12.652344 29.222656 C 12.648438 30.128906 11.914062 30.859375 11.011719 30.863281 L 11.011719 34.625 C 7.78125 33.246094 4.976562 30.917969 3.070312 28.007812 C 2.488281 27.105469 1.957031 26.152344 1.535156 25.148438 L 1.535156 24.089844 C 1.535156 21.707031 3.070312 19.640625 5.1875 18.847656 C 5.769531 18.636719 6.457031 18.476562 7.148438 18.476562 C 10.113281 18.53125 12.652344 21.019531 12.652344 24.089844 Z M 12.652344 24.089844 "/>
<path style=" stroke:none;fill-rule:nonzero;fill:rgb(93.72549%,28.235294%,49.019608%);fill-opacity:1;" d="M 2.433594 27.054688 C 2.066406 26.417969 1.746094 25.78125 1.480469 25.148438 L 1.480469 24.089844 C 1.480469 21.707031 3.019531 19.640625 5.136719 18.847656 L 5.558594 19.589844 C 3.917969 20.066406 2.382812 22.339844 2.433594 27.054688 Z M 2.433594 27.054688 "/>
<path style=" stroke:none;fill-rule:nonzero;fill:rgb(28.235294%,29.411765%,49.803922%);fill-opacity:1;" d="M 12.652344 28.007812 L 12.652344 29.222656 C 12.652344 30.125 11.910156 30.863281 11.011719 30.863281 L 11.011719 34.625 C 7.78125 33.246094 4.976562 30.917969 3.070312 28.007812 Z M 12.652344 28.007812 "/>
<path style=" stroke:none;fill-rule:nonzero;fill:rgb(93.72549%,28.235294%,49.019608%);fill-opacity:1;" d="M 4.078125 28.007812 L 10.21875 28.007812 L 10.21875 29.011719 L 4.078125 29.011719 Z M 4.078125 28.007812 "/>
<path style=" stroke:none;fill-rule:nonzero;fill:rgb(58.823529%,34.509804%,27.058824%);fill-opacity:1;" d="M 4.660156 28.007812 L 4.660156 29.277344 C 4.660156 29.488281 4.605469 29.753906 4.5 29.910156 L 3.019531 28.007812 Z M 4.660156 28.007812 "/>
<path style=" stroke:none;fill-rule:nonzero;fill:rgb(50.980392%,21.568627%,15.686275%);fill-opacity:1;" d="M 9.421875 28.007812 L 12.601562 28.007812 L 12.601562 29.277344 C 12.601562 30.175781 11.910156 30.863281 11.011719 30.863281 C 10.113281 30.863281 9.421875 30.175781 9.421875 29.277344 Z M 9.421875 28.007812 "/>
<path style=" stroke:none;fill-rule:nonzero;fill:rgb(58.823529%,34.509804%,27.058824%);fill-opacity:1;" d="M 12.652344 28.007812 L 12.652344 29.277344 C 12.652344 29.964844 12.175781 30.601562 11.542969 30.8125 C 11.277344 30.757812 11.066406 30.601562 10.90625 30.441406 C 10.640625 30.175781 10.429688 29.753906 10.429688 29.328125 L 10.429688 28.058594 Z M 12.652344 28.007812 "/>
<path style=" stroke:none;fill-rule:nonzero;fill:rgb(94.117647%,94.117647%,94.117647%);fill-opacity:1;" d="M 7.042969 20.648438 L 8.789062 19.21875 L 7.042969 18.53125 L 5.347656 19.21875 Z M 7.042969 20.648438 "/>
<path style=" stroke:none;fill-rule:nonzero;fill:rgb(93.72549%,28.235294%,49.019608%);fill-opacity:1;" d="M 7.042969 18.53125 L 5.242188 20.753906 L 4.023438 18.636719 Z M 7.042969 18.53125 "/>
<path style=" stroke:none;fill-rule:nonzero;fill:rgb(93.72549%,28.235294%,49.019608%);fill-opacity:1;" d="M 7.042969 18.53125 L 8.839844 20.753906 L 10.113281 18.636719 Z M 7.042969 18.53125 "/>
<path style=" stroke:none;fill-rule:nonzero;fill:rgb(94.117647%,94.117647%,94.117647%);fill-opacity:1;" d="M 7.042969 26.46875 L 8.417969 25.304688 L 7.042969 19.957031 L 5.664062 25.304688 Z M 7.042969 26.46875 "/>
<path style=" stroke:none;fill-rule:nonzero;fill:rgb(93.72549%,28.235294%,49.019608%);fill-opacity:1;" d="M 4.339844 22.289062 C 4.511719 22.300781 4.644531 22.4375 4.660156 22.605469 L 4.660156 28.007812 L 4.078125 28.007812 L 4.078125 22.554688 C 4.070312 22.480469 4.097656 22.410156 4.148438 22.359375 C 4.199219 22.308594 4.269531 22.285156 4.339844 22.289062 Z M 9.742188 22.289062 C 9.910156 22.300781 10.046875 22.4375 10.058594 22.605469 L 10.058594 28.007812 L 9.476562 28.007812 L 9.476562 22.554688 C 9.421875 22.394531 9.582031 22.289062 9.742188 22.289062 Z M 9.742188 22.289062 "/>
<path style=" stroke:none;fill-rule:nonzero;fill:rgb(20.392157%,22.745098%,43.137255%);fill-opacity:1;" d="M 7.464844 30.8125 L 7.464844 32.613281 L 6.617188 31.976562 L 6.617188 30.8125 C 6.617188 30.601562 6.828125 30.386719 7.042969 30.386719 C 7.253906 30.386719 7.464844 30.546875 7.464844 30.8125 Z M 7.464844 30.8125 "/>
<path style=" stroke:none;fill-rule:nonzero;fill:rgb(34.509804%,59.215686%,81.960784%);fill-opacity:1;" d="M 12.492188 8.945312 C 12.492188 10.933594 10.882812 12.542969 8.894531 12.546875 L 3.652344 12.546875 C 3.65625 10.558594 5.265625 8.949219 7.253906 8.945312 Z M 12.492188 8.945312 "/>
<path style=" stroke:none;fill-rule:nonzero;fill:rgb(62.352941%,77.254902%,90.196078%);fill-opacity:1;" d="M 12.492188 8.945312 C 12.492188 10.933594 10.882812 12.542969 8.894531 12.546875 L 4.445312 12.546875 C 4.449219 10.558594 6.058594 8.949219 8.046875 8.945312 Z M 12.492188 8.945312 "/>
<path style=" stroke:none;fill-rule:nonzero;fill:rgb(89.803922%,63.921569%,47.45098%);fill-opacity:1;" d="M 27.265625 17.101562 L 30.601562 17.101562 L 30.601562 19.640625 L 27.265625 19.640625 Z M 27.265625 17.101562 "/>
<path style=" stroke:none;fill-rule:nonzero;fill:rgb(89.803922%,63.921569%,47.45098%);fill-opacity:1;" d="M 32.875 14.558594 C 32.875 16.464844 31.554688 18 29.804688 18.421875 C 29.542969 18.476562 29.222656 18.53125 28.957031 18.53125 C 26.789062 18.53125 25.042969 16.78125 25.042969 14.613281 C 25.042969 12.441406 26.789062 10.695312 28.957031 10.695312 C 29.277344 10.695312 29.542969 10.746094 29.804688 10.800781 C 31.554688 11.117188 32.875 12.707031 32.875 14.558594 Z M 32.875 14.558594 "/>
<path style=" stroke:none;fill-rule:nonzero;fill:rgb(97.647059%,83.529412%,66.27451%);fill-opacity:1;" d="M 32.875 14.558594 C 32.875 16.464844 31.554688 18 29.804688 18.421875 C 28.058594 18.054688 26.734375 16.464844 26.734375 14.558594 C 26.734375 12.652344 28.058594 11.117188 29.804688 10.695312 C 31.554688 11.117188 32.875 12.707031 32.875 14.558594 Z M 32.875 14.558594 "/>
<path style=" stroke:none;fill-rule:nonzero;fill:rgb(62.352941%,77.254902%,90.196078%);fill-opacity:1;" d="M 34.519531 24.089844 L 34.519531 25.199219 C 34.09375 26.207031 33.566406 27.105469 32.980469 28.007812 C 31.023438 30.917969 28.269531 33.246094 24.988281 34.625 L 24.988281 30.863281 C 24.566406 30.863281 24.195312 30.707031 23.929688 30.441406 C 23.875 30.386719 23.824219 30.386719 23.824219 30.335938 C 23.558594 30.019531 23.398438 29.648438 23.398438 29.222656 L 23.398438 24.089844 C 23.398438 21.707031 24.933594 19.640625 27.054688 18.847656 C 27.636719 18.636719 28.324219 18.476562 29.011719 18.476562 C 32.03125 18.53125 34.519531 21.019531 34.519531 24.089844 Z M 34.519531 24.089844 "/>
<path style=" stroke:none;fill-rule:nonzero;fill:rgb(34.509804%,59.215686%,81.960784%);fill-opacity:1;" d="M 24.351562 28.007812 C 24.40625 29.222656 24.246094 29.964844 23.929688 30.492188 C 23.875 30.441406 23.824219 30.441406 23.824219 30.386719 C 23.558594 30.070312 23.398438 29.699219 23.398438 29.277344 L 23.398438 24.140625 C 23.398438 21.757812 24.933594 19.695312 27.054688 18.898438 L 27.476562 19.640625 C 25.730469 20.066406 24.035156 22.660156 24.351562 28.007812 Z M 24.351562 28.007812 "/>
<path style=" stroke:none;fill-rule:nonzero;fill:rgb(28.235294%,29.411765%,49.803922%);fill-opacity:1;" d="M 32.980469 28.007812 C 31.023438 30.917969 28.269531 33.246094 24.988281 34.625 L 24.988281 30.863281 C 24.511719 30.863281 24.089844 30.652344 23.769531 30.335938 L 23.769531 28.007812 Z M 32.980469 28.007812 "/>
<path style=" stroke:none;fill-rule:nonzero;fill:rgb(20.392157%,22.745098%,43.137255%);fill-opacity:1;" d="M 25.992188 29.117188 L 25.992188 34.09375 L 24.988281 34.570312 L 24.988281 30.8125 C 24.511719 30.8125 24.089844 30.601562 23.769531 30.28125 L 23.769531 29.117188 Z M 25.992188 29.117188 "/>
<path style=" stroke:none;fill-rule:nonzero;fill:rgb(34.509804%,59.215686%,81.960784%);fill-opacity:1;" d="M 25.941406 28.007812 L 32.082031 28.007812 L 32.082031 29.011719 L 25.941406 29.011719 Z M 25.941406 28.007812 "/>
<path style=" stroke:none;fill-rule:nonzero;fill:rgb(89.803922%,63.921569%,47.45098%);fill-opacity:1;" d="M 26.523438 28.007812 L 26.523438 29.277344 C 26.523438 29.964844 26.046875 30.601562 25.410156 30.8125 C 25.253906 30.863281 25.09375 30.863281 24.933594 30.863281 C 24.511719 30.863281 24.089844 30.707031 23.824219 30.386719 C 23.558594 30.125 23.347656 29.699219 23.347656 29.277344 L 23.347656 28.007812 Z M 26.523438 28.007812 "/>
<path style=" stroke:none;fill-rule:nonzero;fill:rgb(97.647059%,83.529412%,66.27451%);fill-opacity:1;" d="M 26.523438 28.007812 L 26.523438 29.277344 C 26.523438 29.964844 26.046875 30.601562 25.410156 30.8125 C 25.148438 30.757812 24.933594 30.601562 24.777344 30.441406 C 24.511719 30.175781 24.300781 29.753906 24.300781 29.328125 L 24.300781 28.058594 Z M 26.523438 28.007812 "/>
<path style=" stroke:none;fill-rule:nonzero;fill:rgb(89.803922%,63.921569%,47.45098%);fill-opacity:1;" d="M 32.980469 28.007812 L 32.292969 28.957031 C 32.03125 29.328125 31.765625 29.648438 31.445312 29.964844 C 31.339844 29.753906 31.289062 29.542969 31.289062 29.277344 L 31.289062 28.007812 Z M 32.980469 28.007812 "/>
<path style=" stroke:none;fill-rule:nonzero;fill:rgb(97.647059%,83.529412%,66.27451%);fill-opacity:1;" d="M 32.980469 28.007812 L 32.292969 28.957031 L 32.292969 28.007812 Z M 32.980469 28.007812 "/>
<path style=" stroke:none;fill-rule:nonzero;fill:rgb(28.235294%,29.411765%,49.803922%);fill-opacity:1;" d="M 28.90625 20.648438 L 30.652344 19.21875 L 28.90625 18.53125 L 27.210938 19.21875 Z M 28.90625 20.648438 "/>
<path style=" stroke:none;fill-rule:nonzero;fill:rgb(34.509804%,59.215686%,81.960784%);fill-opacity:1;" d="M 28.90625 18.53125 L 27.105469 20.753906 L 25.886719 18.636719 Z M 28.90625 18.53125 "/>
<path style=" stroke:none;fill-rule:nonzero;fill:rgb(34.509804%,59.215686%,81.960784%);fill-opacity:1;" d="M 28.90625 18.53125 L 30.707031 20.753906 L 31.976562 18.636719 Z M 28.90625 18.53125 "/>
<path style=" stroke:none;fill-rule:nonzero;fill:rgb(28.235294%,29.411765%,49.803922%);fill-opacity:1;" d="M 28.90625 26.46875 L 30.28125 25.304688 L 28.90625 19.957031 L 27.53125 25.304688 Z M 28.90625 26.46875 "/>
<path style=" stroke:none;fill-rule:nonzero;fill:rgb(34.509804%,59.215686%,81.960784%);fill-opacity:1;" d="M 26.257812 22.289062 C 26.429688 22.300781 26.5625 22.4375 26.578125 22.605469 L 26.578125 28.007812 L 25.941406 28.007812 L 25.941406 22.554688 C 25.941406 22.394531 26.046875 22.289062 26.257812 22.289062 Z M 31.605469 22.289062 C 31.777344 22.300781 31.910156 22.4375 31.921875 22.605469 L 31.921875 28.007812 L 31.339844 28.007812 L 31.339844 22.554688 C 31.335938 22.480469 31.363281 22.410156 31.414062 22.359375 C 31.464844 22.308594 31.535156 22.285156 31.605469 22.289062 Z M 31.605469 22.289062 "/>
<path style=" stroke:none;fill-rule:nonzero;fill:rgb(20.392157%,22.745098%,43.137255%);fill-opacity:1;" d="M 29.328125 30.8125 L 29.328125 31.976562 L 28.480469 32.613281 L 28.480469 30.8125 C 28.480469 30.601562 28.695312 30.386719 28.90625 30.386719 C 29.117188 30.386719 29.328125 30.546875 29.328125 30.8125 Z M 29.328125 30.8125 "/>
<path style=" stroke:none;fill-rule:nonzero;fill:rgb(93.72549%,28.235294%,49.019608%);fill-opacity:1;" d="M 34.410156 8.945312 C 34.410156 10.933594 32.796875 12.542969 30.8125 12.546875 L 25.570312 12.546875 C 25.574219 10.558594 27.183594 8.949219 29.171875 8.945312 Z M 34.410156 8.945312 "/>
<path style=" stroke:none;fill-rule:nonzero;fill:rgb(100%,40%,54.901961%);fill-opacity:1;" d="M 34.410156 8.945312 C 34.410156 10.933594 32.796875 12.542969 30.8125 12.546875 L 26.363281 12.546875 C 26.367188 10.558594 27.976562 8.949219 29.964844 8.945312 Z M 34.410156 8.945312 "/>
<path style=" stroke:none;fill-rule:nonzero;fill:rgb(89.803922%,65.098039%,32.941176%);fill-opacity:1;" d="M 15.988281 21.125 L 19.957031 21.125 L 19.957031 24.140625 L 15.988281 24.140625 Z M 15.988281 21.125 "/>
<path style=" stroke:none;fill-rule:nonzero;fill:rgb(89.803922%,65.098039%,32.941176%);fill-opacity:1;" d="M 22.710938 18.105469 C 22.710938 20.328125 21.125 22.234375 19.007812 22.710938 C 18.6875 22.765625 18.316406 22.816406 18 22.816406 C 15.40625 22.816406 13.289062 20.699219 13.289062 18.105469 C 13.289062 15.511719 15.40625 13.394531 18 13.394531 C 18.371094 13.394531 18.6875 13.445312 19.007812 13.5 C 21.125 13.976562 22.710938 15.882812 22.710938 18.105469 Z M 22.710938 18.105469 "/>
<path style=" stroke:none;fill-rule:nonzero;fill:rgb(97.647059%,77.647059%,50.980392%);fill-opacity:1;" d="M 22.710938 18.105469 C 22.710938 20.328125 21.125 22.234375 19.007812 22.710938 C 16.886719 22.234375 15.300781 20.382812 15.300781 18.105469 C 15.300781 15.828125 16.886719 13.976562 19.007812 13.5 C 21.125 13.976562 22.710938 15.882812 22.710938 18.105469 Z M 22.710938 18.105469 "/>
<path style=" stroke:none;fill-rule:nonzero;fill:rgb(94.117647%,94.117647%,94.117647%);fill-opacity:1;" d="M 24.671875 29.488281 L 24.671875 34.730469 L 22.445312 35.46875 C 21.019531 35.789062 19.535156 36 18 36 C 16.625 36 15.246094 35.839844 13.921875 35.523438 C 13.023438 35.3125 12.175781 35.046875 11.328125 34.730469 L 11.328125 29.488281 C 11.328125 26.628906 13.128906 24.195312 15.671875 23.242188 C 16.410156 22.976562 17.152344 22.816406 18 22.816406 C 21.707031 22.816406 24.671875 25.78125 24.671875 29.488281 Z M 24.671875 29.488281 "/>
<path style=" stroke:none;fill-rule:nonzero;fill:rgb(83.137255%,83.137255%,83.137255%);fill-opacity:1;" d="M 12.546875 34.148438 L 12.546875 35.152344 L 12.492188 35.152344 C 12.070312 35.046875 11.699219 34.886719 11.328125 34.730469 L 11.328125 29.488281 C 11.328125 26.628906 13.128906 24.195312 15.671875 23.242188 L 16.148438 24.089844 C 14.136719 24.722656 12.175781 27.792969 12.546875 34.148438 Z M 12.546875 34.148438 "/>
<path style=" stroke:none;fill-rule:nonzero;fill:rgb(100%,40%,54.901961%);fill-opacity:1;" d="M 22.445312 34.78125 L 22.445312 35.46875 C 21.019531 35.789062 19.535156 36 18 36 C 16.625 36 15.246094 35.839844 13.921875 35.523438 L 13.921875 34.730469 Z M 22.445312 34.78125 "/>
<path style=" stroke:none;fill-rule:nonzero;fill:rgb(83.137255%,83.137255%,83.137255%);fill-opacity:1;" d="M 14.398438 34.148438 L 21.757812 34.148438 L 21.757812 35.3125 L 14.398438 35.3125 Z M 14.398438 34.148438 "/>
<path style=" stroke:none;fill-rule:nonzero;fill:rgb(89.803922%,65.098039%,32.941176%);fill-opacity:1;" d="M 15.140625 34.148438 L 15.140625 35.789062 C 14.242188 35.628906 13.339844 35.417969 12.492188 35.152344 C 12.070312 35.046875 11.699219 34.886719 11.328125 34.730469 L 11.328125 34.148438 Z M 15.140625 34.148438 "/>
<path style=" stroke:none;fill-rule:nonzero;fill:rgb(97.647059%,77.647059%,50.980392%);fill-opacity:1;" d="M 15.140625 34.148438 L 15.140625 35.789062 C 14.242188 35.628906 13.339844 35.417969 12.492188 35.152344 L 12.492188 34.148438 Z M 15.140625 34.148438 "/>
<path style=" stroke:none;fill-rule:nonzero;fill:rgb(89.803922%,65.098039%,32.941176%);fill-opacity:1;" d="M 24.671875 34.148438 L 24.671875 34.730469 L 22.023438 35.578125 C 21.652344 35.683594 21.230469 35.734375 20.859375 35.789062 L 20.859375 34.148438 Z M 24.671875 34.148438 "/>
<path style=" stroke:none;fill-rule:nonzero;fill:rgb(97.647059%,77.647059%,50.980392%);fill-opacity:1;" d="M 24.671875 34.148438 L 24.671875 34.730469 L 22.023438 35.578125 L 22.023438 34.199219 L 24.671875 34.199219 Z M 24.671875 34.148438 "/>
<path style=" stroke:none;fill-rule:nonzero;fill:rgb(93.72549%,28.235294%,49.019608%);fill-opacity:1;" d="M 18 25.359375 L 20.066406 23.664062 L 18 22.816406 L 15.933594 23.664062 Z M 18 25.359375 "/>
<path style=" stroke:none;fill-rule:nonzero;fill:rgb(83.137255%,83.137255%,83.137255%);fill-opacity:1;" d="M 18 22.816406 L 15.828125 25.519531 L 14.347656 22.976562 Z M 18 22.816406 "/>
<path style=" stroke:none;fill-rule:nonzero;fill:rgb(83.137255%,83.137255%,83.137255%);fill-opacity:1;" d="M 18 22.816406 L 20.171875 25.519531 L 21.652344 22.976562 Z M 18 22.816406 "/>
<path style=" stroke:none;fill-rule:nonzero;fill:rgb(93.72549%,28.235294%,49.019608%);fill-opacity:1;" d="M 18 32.347656 L 19.640625 30.917969 L 18 24.566406 L 16.359375 30.917969 Z M 18 32.347656 "/>
<path style=" stroke:none;fill-rule:nonzero;fill:rgb(83.137255%,83.137255%,83.137255%);fill-opacity:1;" d="M 14.769531 27.316406 C 14.871094 27.316406 14.964844 27.351562 15.035156 27.421875 C 15.105469 27.492188 15.144531 27.589844 15.140625 27.6875 L 15.140625 34.148438 L 14.398438 34.148438 L 14.398438 27.6875 C 14.398438 27.589844 14.433594 27.492188 14.503906 27.421875 C 14.574219 27.351562 14.671875 27.316406 14.769531 27.316406 Z M 21.230469 27.316406 C 21.328125 27.316406 21.425781 27.351562 21.496094 27.421875 C 21.566406 27.492188 21.601562 27.589844 21.601562 27.6875 L 21.601562 34.148438 L 20.859375 34.148438 L 20.859375 27.6875 C 20.855469 27.589844 20.894531 27.492188 20.964844 27.421875 C 21.035156 27.351562 21.128906 27.316406 21.230469 27.316406 Z M 24.511719 11.433594 C 24.5 13.828125 22.5625 15.765625 20.171875 15.777344 L 13.921875 15.777344 C 13.933594 13.382812 15.871094 11.445312 18.265625 11.433594 Z M 24.511719 11.433594 "/>
<path style=" stroke:none;fill-rule:nonzero;fill:rgb(94.117647%,94.117647%,94.117647%);fill-opacity:1;" d="M 24.511719 11.433594 C 24.511719 13.816406 22.554688 15.777344 20.171875 15.777344 L 14.875 15.777344 C 14.875 13.394531 16.835938 11.433594 19.21875 11.433594 Z M 24.511719 11.433594 "/>
<path style=" stroke:none;fill-rule:nonzero;fill:rgb(99.607843%,69.019608%,0%);fill-opacity:1;" d="M 18.742188 0.421875 L 19.480469 1.90625 C 19.589844 2.117188 19.800781 2.328125 20.066406 2.328125 L 21.707031 2.59375 C 22.339844 2.699219 22.605469 3.492188 22.128906 3.96875 L 20.964844 5.136719 C 20.75 5.292969 20.648438 5.5625 20.699219 5.824219 L 20.964844 7.464844 C 21.070312 8.101562 20.382812 8.628906 19.800781 8.3125 L 18.316406 7.519531 C 18.082031 7.410156 17.8125 7.410156 17.578125 7.519531 L 16.09375 8.3125 C 15.511719 8.628906 14.824219 8.101562 14.929688 7.464844 L 15.195312 5.824219 C 15.238281 5.574219 15.160156 5.316406 14.980469 5.136719 L 13.816406 3.96875 C 13.339844 3.492188 13.605469 2.699219 14.242188 2.59375 L 15.882812 2.382812 C 16.148438 2.328125 16.359375 2.171875 16.464844 1.957031 L 17.207031 0.476562 C 17.578125 -0.160156 18.421875 -0.160156 18.742188 0.421875 Z M 9 1.113281 L 9.582031 2.277344 C 9.671875 2.46875 9.851562 2.605469 10.058594 2.648438 L 11.328125 2.859375 C 11.859375 2.910156 12.070312 3.546875 11.699219 3.917969 L 10.800781 4.765625 C 10.640625 4.921875 10.589844 5.136719 10.640625 5.347656 L 10.851562 6.617188 C 10.957031 7.148438 10.375 7.519531 9.953125 7.304688 L 8.789062 6.722656 C 8.628906 6.617188 8.363281 6.617188 8.207031 6.722656 L 7.042969 7.304688 C 6.566406 7.570312 6.035156 7.148438 6.140625 6.617188 L 6.351562 5.347656 C 6.351562 5.136719 6.246094 4.921875 6.140625 4.765625 L 5.1875 3.863281 C 4.816406 3.492188 5.03125 2.859375 5.558594 2.804688 L 6.828125 2.59375 C 7.039062 2.554688 7.214844 2.414062 7.304688 2.222656 L 7.886719 1.058594 C 8.101562 0.636719 8.789062 0.636719 9 1.113281 Z M 28.113281 1.113281 L 28.695312 2.277344 C 28.785156 2.46875 28.960938 2.605469 29.171875 2.648438 L 30.441406 2.859375 C 30.96875 2.910156 31.183594 3.546875 30.8125 3.917969 L 29.859375 4.765625 C 29.699219 4.921875 29.648438 5.136719 29.699219 5.347656 L 29.910156 6.617188 C 30.019531 7.148438 29.433594 7.519531 29.011719 7.304688 L 27.847656 6.722656 C 27.6875 6.617188 27.421875 6.617188 27.265625 6.722656 L 26.101562 7.304688 C 25.625 7.570312 25.09375 7.148438 25.199219 6.617188 L 25.410156 5.347656 C 25.464844 5.136719 25.359375 4.921875 25.253906 4.765625 L 24.300781 3.863281 C 23.929688 3.492188 24.140625 2.859375 24.671875 2.804688 L 25.941406 2.59375 C 26.148438 2.554688 26.328125 2.414062 26.417969 2.222656 L 27 1.113281 C 27.210938 0.636719 27.898438 0.636719 28.113281 1.113281 Z M 28.113281 1.113281 "/>
</g>
</svg>
